{"title":"Dead.Man.Running.2009.BRRIP.720P.H264-ZEKTORM","uid":5604512,"size":1767236568,"categoryP":"video","categoryS":"hd___movies","magnet":"?xt=urn:btih:f1a7489be034af266627fa61530336ee84cad03c&amp;dn=Dead.Man.Running.2009.BRRIP.720P.H264-ZEKTORM&amp;tr=udp%3A%2F%2Ftracker.openbittorrent.com%3A80&amp;tr=udp%3A%2F%2Fopen.demonii.com%3A1337&amp;tr=udp%3A%2F%2Ftracker.coppersurfer.tk%3A6969&amp;tr=udp%3A%2F%2Fexodus.desync.com%3A6969","seeders":0,"leechers":1,"uploader":"blowley","files":3,"time":1275515295,"description":"Title                            : Dead Man Running\nYear                             : 2009\nGenre                            : Action | Crime | Drama | Thriller\niMDB URL                         : http://www.imdb.com/title/tt1311699/\n\nComplete name                    : Dead.Man.Running.2009.BRRIP.720P.H264-ZEKTORM.mp4\nFormat                           : MPEG-4\nFormat profile                   : Base Media\nCodec ID                         : isom\nFile size                        : 1.65 GiB\nDuration                         : 1h 31mn\nOverall bit rate                 : 2573 Kbps\n\nVideo\nID                               : 1\nFormat                           : AVC\nFormat/Info                      : Advanced Video Codec\nFormat profile                   : &lt;a class=&quot;__cf_email__&quot; href=&quot;/cdn-cgi/l/email-protection&quot; data-cfemail=&quot;367e5f515e767a021806&quot;&gt;[email&amp;#160;protected]&lt;/a&gt;&lt;script cf-hash='f9e31' type=&quot;text/javascript&quot;&gt;\n/* &lt;![CDATA[ */!function(){try{var t=&quot;currentScript&quot;in document?document.currentScript:function(){for(var t=document.getElementsByTagName(&quot;script&quot;),e=t.length;e--;)if(t[e].getAttribute(&quot;cf-hash&quot;))return t[e]}();if(t&amp;&amp;t.previousSibling){var e,r,n,i,c=t.previousSibling,a=c.getAttribute(&quot;data-cfemail&quot;);if(a){for(e=&quot;&quot;,r=parseInt(a.substr(0,2),16),n=2;a.length-n;n+=2)i=parseInt(a.substr(n,2),16)^r,e+=String.fromCharCode(i);e=document.createTextNode(e),c.parentNode.replaceChild(e,c)}}}catch(u){}}();/* ]]&gt; */&lt;/script&gt;\nFormat settings, CABAC           : Yes\nFormat settings, ReFrames        : 4 frames\nCodec ID                         : avc1\nCodec ID/Info                    : Advanced Video Coding\nDuration                         : 1h 31mn\nBit rate mode                    : Variable\nBit rate                         : 2268 Kbps\nWidth                            : 1280 pixels\nHeight                           : 544 pixels\nDisplay aspect ratio             : 2.35\nFrame rate mode                  : Constant\nFrame rate                       : 23.976 fps\nResolution                       : 24 bits\nColorimetry                      : 4:2:0\nScan type                        : Progressive\nBits/(Pixel*Frame)               : 0.136\nStream size                      : 1.45 GiB (88%)\nTitle                            : Video\nWriting library                  : x264\n\nAudio #1\nID                               : 2\nFormat                           : AAC\nFormat/Info                      : Advanced Audio Codec\nFormat version                   : Version 4\nFormat profile                   : LC\nFormat settings, SBR             : Yes\nFormat settings, PS              : No\nCodec ID                         : 40\nDuration                         : 1h 31mn\nBit rate mode                    : Variable\nBit rate                         : 220 Kbps\nMaximum bit rate                 : 277 Kbps\nChannel(s)                       : 6 channels\nChannel positions                : Front: L C R, Rear: L R, LFE\nSampling rate                    : 48.0 KHz\nResolution                       : 16 bits\nStream size                      : 144 MiB (9%)\nTitle                            : English\nLanguage                         : English\n\nAudio #2\nID                               : 3\nFormat                           : AAC\nFormat/Info                      : Advanced Audio Codec\nFormat version                   : Version 4\nFormat profile                   : LC\nFormat settings, SBR             : Yes\nFormat settings, PS              : No\nCodec ID                         : 40\nDuration                         : 1h 31mn\nBit rate mode                    : Variable\nBit rate                         : 81.0 Kbps\nMaximum bit rate                 : 108 Kbps\nChannel(s)                       : 2 channels\nChannel positions                : L R\nSampling rate                    : 48.0 KHz\nResolution                       : 16 bits\nStream size                      : 53.1 MiB (3%)\nLanguage                         : English\n","torrent":{"xt":"urn:btih:f1a7489be034af266627fa61530336ee84cad03c","amp;dn":"Dead.Man.Running.2009.BRRIP.720P.H264-ZEKTORM","amp;tr":["udp%3A%2F%2Ftracker.openbittorrent.com%3A80","udp%3A%2F%2Fopen.demonii.com%3A1337","udp%3A%2F%2Ftracker.coppersurfer.tk%3A6969","udp%3A%2F%2Fexodus.desync.com%3A6969"],"infoHash":"f1a7489be034af266627fa61530336ee84cad03c","infoHashBuffer":{"type":"Buffer","data":[241,167,72,155,224,52,175,38,102,39,250,97,83,3,54,238,132,202,208,60]},"announce":[],"urlList":[]}}